<svg xmlns="http://www.w3.org/2000/svg" viewBox="0 0 155 48" width="155" height="48" fill="none" role="img" aria-label="LinkedIn — in/abdu7rahman">
<title>LinkedIn — in/abdu7rahman</title>
<rect x="0.5" y="0.5" width="154" height="47" rx="23.5" fill="#f6f8fa" stroke="#d1d9e0"/>
<g transform="translate(26 12)"><path fill="#59636e" d="M6.94 8.5H3.9V20h3.04V8.5ZM5.42 3.7a1.77 1.77 0 1 0 0 3.53 1.77 1.77 0 0 0 0-3.53ZM20.1 20h-3.03v-5.6c0-1.34-.03-3.06-1.87-3.06-1.87 0-2.16 1.46-2.16 2.96V20H9.99V8.5h2.91v1.57h.04c.4-.77 1.4-1.58 2.87-1.58 3.07 0 3.64 2.02 3.64 4.65V20Z"/></g>
<text x="95" y="29" font-family="ui-sans-serif,-apple-system,BlinkMacSystemFont,'Segoe UI','Noto Sans',Helvetica,Arial,sans-serif" font-size="13.5" font-weight="550" letter-spacing="-0.05" text-anchor="middle" fill="#1f2328">LinkedIn</text>
</svg>